<svg width="1000" height="1000" viewBox="0 0 1000 1000" fill="none" xmlns="http://www.w3.org/2000/svg">
<path d="M931.09 710.716L776.867 501.186C760.115 478.416 735.304 464.775 708.886 461.768C702.871 461.073 697.501 457.583 694.494 452.32C691.433 447.057 691.111 440.666 693.527 435.081C704.107 410.704 704.751 382.403 693.366 356.521L589.032 118.209C573.566 82.8219 538.609 60 500 60C461.392 60 426.435 82.8756 410.968 118.209L306.633 356.521C295.302 382.403 295.893 410.704 306.472 435.081C308.888 440.666 308.512 447.057 305.505 452.32C302.444 457.583 297.128 461.073 291.114 461.768C264.694 464.775 239.886 478.416 223.132 501.186L68.9109 710.716C46.0353 741.806 43.7264 783.476 63.0039 816.929C82.3355 850.329 119.602 869.178 157.943 864.936L416.5 836.155C444.583 833.04 468.803 818.379 484.588 797.009C488.186 792.122 493.932 789.222 500 789.222C506.069 789.222 511.761 792.122 515.413 797.009C531.198 818.379 555.418 833.04 583.501 836.155L842.058 864.936C880.398 869.232 917.665 850.382 936.998 816.929C956.273 783.476 953.964 741.806 931.09 710.716ZM374.078 386.43L478.573 147.85C482.332 139.312 490.763 133.781 500.054 133.781C509.345 133.781 517.772 139.312 521.532 147.85L626.03 386.43C629.306 393.949 628.608 402.648 624.097 409.522C619.586 416.396 611.96 420.528 603.69 420.528H396.361C388.148 420.528 380.469 416.396 375.958 409.522C371.447 402.648 370.749 393.949 374.024 386.43H374.078ZM427.724 749.647C424.018 757.004 416.822 761.941 408.659 762.854L149.834 791.639C140.598 792.659 131.577 788.148 126.905 780.093C122.233 772.037 122.824 761.995 128.355 754.48L282.737 544.735C287.624 538.13 295.464 534.371 303.68 534.854C311.895 535.284 319.306 539.848 323.44 546.987L323.601 547.256L426.972 726.286L427.133 726.555C431.268 733.697 431.483 742.397 427.777 749.701L427.724 749.647ZM521.263 668.67C516.863 676.239 508.808 680.965 500 680.965C491.247 680.965 483.138 676.293 478.734 668.724L399.315 531.202C394.911 523.63 394.911 514.232 399.315 506.66C403.719 499.091 411.774 494.366 420.581 494.366H579.366C588.119 494.366 596.229 498.984 600.632 506.606C605.032 514.232 605.032 523.576 600.632 531.148L521.263 668.67ZM873.149 780.093C868.476 788.148 859.508 792.713 850.221 791.693L591.395 762.908C583.232 761.995 576.036 757.058 572.331 749.701C568.625 742.343 568.84 733.643 572.975 726.555L573.136 726.286L676.507 547.256L676.668 546.987C680.803 539.848 688.211 535.284 696.427 534.854C704.644 534.424 712.484 538.13 717.371 544.735L871.752 754.48C877.284 761.995 877.821 772.037 873.202 780.093H873.149Z" fill="#E81899"/>
</svg>
