<svg width="1000" height="1000" viewBox="0 0 1000 1000" fill="none" xmlns="http://www.w3.org/2000/svg">
<path d="M883.142 720.377L746.063 534.14C731.174 513.901 709.121 501.777 685.64 499.104C680.294 498.487 675.521 495.384 672.848 490.706C670.127 486.029 669.84 480.348 671.988 475.384C681.392 453.717 681.965 428.562 671.845 405.558L579.11 193.738C565.363 162.285 534.292 142 499.975 142C465.659 142 434.588 162.333 420.841 193.738L328.104 405.558C318.033 428.562 318.558 453.717 327.961 475.384C330.108 480.348 329.774 486.029 327.101 490.706C324.381 495.384 319.656 498.487 314.31 499.104C290.827 501.777 268.777 513.901 253.886 534.14L116.809 720.377C96.476 748.011 94.4239 785.049 111.558 814.783C128.741 844.469 161.865 861.224 195.943 857.453L425.757 831.871C450.718 829.103 472.246 816.072 486.276 797.077C489.474 792.734 494.582 790.156 499.975 790.156C505.369 790.156 510.429 792.734 513.675 797.077C527.705 816.072 549.232 829.103 574.193 831.871L804.008 857.453C838.086 861.271 871.209 844.517 888.393 814.783C905.526 785.049 903.473 748.011 883.142 720.377ZM388.051 432.142L480.93 220.084C484.271 212.495 491.765 207.579 500.023 207.579C508.281 207.579 515.772 212.495 519.113 220.084L611.995 432.142C614.906 438.824 614.286 446.557 610.276 452.667C606.267 458.776 599.489 462.449 592.138 462.449H407.857C400.557 462.449 393.732 458.776 389.722 452.667C385.713 446.557 385.092 438.824 388.004 432.142H388.051ZM435.733 754.98C432.44 761.52 426.044 765.908 418.788 766.719L188.736 792.304C180.526 793.211 172.508 789.201 168.356 782.041C164.203 774.881 164.728 765.955 169.644 759.276L306.864 572.848C311.208 566.977 318.176 563.636 325.479 564.065C332.781 564.447 339.368 568.504 343.043 574.85L343.186 575.088L435.065 734.216L435.208 734.455C438.884 740.804 439.075 748.536 435.781 755.028L435.733 754.98ZM518.874 683.006C514.963 689.733 507.804 693.933 499.975 693.933C492.195 693.933 484.987 689.78 481.073 683.053L410.483 560.819C406.569 554.089 406.569 545.736 410.483 539.006C414.397 532.278 421.557 528.078 429.385 528.078H570.518C578.298 528.078 585.506 532.183 589.42 538.958C593.331 545.736 593.331 554.041 589.42 560.772L518.874 683.006ZM831.642 782.041C827.489 789.201 819.518 793.259 811.263 792.352L581.21 766.767C573.955 765.955 567.559 761.567 564.265 755.028C560.971 748.488 561.162 740.756 564.838 734.455L564.981 734.216L656.86 575.088L657.003 574.85C660.679 568.504 667.263 564.447 674.566 564.065C681.869 563.683 688.838 566.977 693.182 572.848L830.401 759.276C835.317 765.955 835.795 774.881 831.69 782.041H831.642Z" fill="#E81899"/>
</svg>
