<svg width="2000" height="736" viewBox="0 0 2000 736" fill="none" xmlns="http://www.w3.org/2000/svg">
<path d="M566.01 358.594L557.02 352.767L356.503 222.495L340.353 212.041C339.952 211.739 339.473 211.558 338.972 211.521C338.471 211.484 337.971 211.591 337.53 211.831C337.089 212.071 336.726 212.433 336.485 212.873C336.244 213.314 336.135 213.814 336.171 214.315V272.173C336.169 272.864 336.341 273.543 336.669 274.151C336.998 274.758 337.474 275.273 338.053 275.649L472.141 362.697L479.667 367.584L472.141 372.471L278.522 498.248L138.084 407.045C136.65 406.11 134.975 405.613 133.263 405.613C131.551 405.613 129.876 406.11 128.441 407.045L92.1168 430.564C91.146 431.192 90.3479 432.053 89.7953 433.069C89.2427 434.085 88.9531 435.223 88.9531 436.379C88.9531 437.535 89.2427 438.673 89.7953 439.689C90.3479 440.704 91.146 441.565 92.1168 442.193L273.531 560C275.053 560.985 276.827 561.508 278.64 561.508C280.453 561.508 282.227 560.985 283.749 560L557.125 382.297L566.114 376.469C567.586 375.484 568.79 374.149 569.62 372.585C570.449 371.02 570.878 369.275 570.867 367.504C570.857 365.733 570.408 363.992 569.56 362.438C568.713 360.883 567.493 359.562 566.01 358.594Z" fill="#FF5D5D"/>
<path d="M4.62553 313.593L50.8545 283.54C52.0109 282.793 52.9613 281.767 53.6188 280.557C54.2762 279.347 54.6196 277.992 54.6176 276.615V91.542L200.544 186.326L220.849 199.523L228.375 204.41L251.189 219.227V364.97C251.186 365.797 251.402 366.61 251.815 367.326C252.228 368.042 252.824 368.636 253.541 369.047L300.58 396.643C301.106 396.95 301.704 397.113 302.314 397.116C302.923 397.119 303.523 396.962 304.052 396.66C304.582 396.359 305.022 395.923 305.33 395.397C305.638 394.871 305.803 394.273 305.807 393.664V194.192C305.804 192.779 305.449 191.389 304.774 190.148C304.098 188.906 303.124 187.853 301.939 187.084L16.5421 1.72345C14.9247 0.675101 13.0544 0.0824633 11.1284 0.00800042C9.20238 -0.0664624 7.29194 0.379988 5.59841 1.30033C3.90488 2.22067 2.49099 3.58081 1.5057 5.2374C0.520418 6.89399 0.000239128 8.7857 0 10.7132V311.241C0.0307088 311.765 0.19807 312.272 0.485445 312.711C0.77282 313.15 1.1702 313.506 1.63801 313.744C2.10582 313.982 2.62774 314.093 3.15188 314.067C3.67602 314.04 4.1841 313.877 4.62553 313.593Z" fill="#FF5D5D"/>
<path d="M247.4 579.263L202.974 550.517C202.204 549.99 201.293 549.708 200.361 549.708C199.428 549.708 198.517 549.99 197.747 550.517L54.3563 643.628V387.526C54.3528 386.024 54.7266 384.546 55.4435 383.226C56.1604 381.906 57.1974 380.788 58.4592 379.974L217.242 276.592C217.722 276.269 218.115 275.834 218.387 275.323C218.659 274.813 218.801 274.243 218.801 273.665C218.801 273.087 218.659 272.518 218.387 272.007C218.115 271.497 217.722 271.061 217.242 270.738L175.299 242.541C174.44 241.968 173.431 241.662 172.398 241.662C171.366 241.662 170.357 241.968 169.498 242.541L5.48787 349.294C3.80714 350.393 2.42582 351.893 1.46794 353.658C0.510062 355.423 0.00564944 357.399 0 359.407V724.483C0.000239128 726.41 0.520418 728.302 1.5057 729.959C2.49099 731.615 3.90488 732.975 5.59841 733.896C7.29194 734.816 9.20238 735.263 11.1284 735.188C13.0544 735.114 14.9247 734.521 16.5421 733.473L220.875 600.744L247.4 583.47C247.729 583.227 247.997 582.91 248.182 582.545C248.366 582.18 248.463 581.776 248.463 581.366C248.463 580.957 248.366 580.553 248.182 580.188C247.997 579.823 247.729 579.506 247.4 579.263Z" fill="#FF5D5D"/>
<path d="M566.01 358.594L557.02 352.767L356.503 222.495L340.353 212.041C339.952 211.739 339.473 211.558 338.972 211.521C338.471 211.484 337.971 211.591 337.53 211.831C337.089 212.071 336.726 212.433 336.485 212.873C336.244 213.314 336.135 213.814 336.171 214.315V272.173C336.169 272.864 336.341 273.543 336.669 274.151C336.998 274.758 337.474 275.273 338.053 275.649L472.141 362.697L479.667 367.584L472.141 372.471L278.522 498.248L138.084 407.045C136.65 406.11 134.975 405.613 133.263 405.613C131.551 405.613 129.876 406.11 128.441 407.045L92.1168 430.564C91.146 431.192 90.3479 432.053 89.7953 433.069C89.2427 434.085 88.9531 435.223 88.9531 436.379C88.9531 437.535 89.2427 438.673 89.7953 439.689C90.3479 440.704 91.146 441.565 92.1168 442.193L273.531 560C275.053 560.985 276.827 561.508 278.64 561.508C280.453 561.508 282.227 560.985 283.749 560L557.125 382.297L566.114 376.469C567.586 375.484 568.79 374.149 569.62 372.585C570.449 371.02 570.878 369.275 570.867 367.504C570.857 365.733 570.408 363.992 569.56 362.438C568.713 360.883 567.493 359.562 566.01 358.594Z" fill="#FF5D5D"/>
<path d="M4.62553 313.593L50.8545 283.54C52.0109 282.793 52.9613 281.767 53.6188 280.557C54.2762 279.347 54.6196 277.992 54.6176 276.615V91.542L200.544 186.326L220.849 199.523L228.375 204.41L251.189 219.227V364.97C251.186 365.797 251.402 366.61 251.815 367.326C252.228 368.042 252.824 368.636 253.541 369.047L300.58 396.643C301.106 396.95 301.704 397.113 302.314 397.116C302.923 397.119 303.523 396.962 304.052 396.66C304.582 396.359 305.022 395.923 305.33 395.397C305.638 394.871 305.803 394.273 305.807 393.664V194.192C305.804 192.779 305.449 191.389 304.774 190.148C304.098 188.906 303.124 187.853 301.939 187.084L16.5421 1.72345C14.9247 0.675101 13.0544 0.0824633 11.1284 0.00800042C9.20238 -0.0664624 7.29194 0.379988 5.59841 1.30033C3.90488 2.22067 2.49099 3.58081 1.5057 5.2374C0.520418 6.89399 0.000239128 8.7857 0 10.7132V311.241C0.0307088 311.765 0.19807 312.272 0.485445 312.711C0.77282 313.15 1.1702 313.506 1.63801 313.744C2.10582 313.982 2.62774 314.093 3.15188 314.067C3.67602 314.04 4.1841 313.877 4.62553 313.593Z" fill="#FF5D5D"/>
<path d="M247.4 579.263L202.974 550.517C202.204 549.99 201.293 549.708 200.361 549.708C199.428 549.708 198.517 549.99 197.747 550.517L54.3563 643.628V387.526C54.3528 386.024 54.7266 384.546 55.4435 383.226C56.1604 381.906 57.1974 380.788 58.4592 379.974L217.242 276.592C217.722 276.269 218.115 275.834 218.387 275.323C218.659 274.813 218.801 274.243 218.801 273.665C218.801 273.087 218.659 272.518 218.387 272.007C218.115 271.497 217.722 271.061 217.242 270.738L175.299 242.541C174.44 241.968 173.431 241.662 172.398 241.662C171.366 241.662 170.357 241.968 169.498 242.541L5.48787 349.294C3.80714 350.393 2.42582 351.893 1.46794 353.658C0.510062 355.423 0.00564944 357.399 0 359.407V724.483C0.000239128 726.41 0.520418 728.302 1.5057 729.959C2.49099 731.615 3.90488 732.975 5.59841 733.896C7.29194 734.816 9.20238 735.263 11.1284 735.188C13.0544 735.114 14.9247 734.521 16.5421 733.473L220.875 600.744L247.4 583.47C247.729 583.227 247.997 582.91 248.182 582.545C248.366 582.18 248.463 581.776 248.463 581.366C248.463 580.957 248.366 580.553 248.182 580.188C247.997 579.823 247.729 579.506 247.4 579.263Z" fill="#FF5D5D"/>
<path d="M992.5 368.393C992.5 480.215 930.094 543.117 818.742 543.117H689.045V193.643H818.847C930.094 193.643 992.5 256.544 992.5 368.393ZM928.082 368.393C928.082 289.498 888.151 249.541 816.756 249.541H752.339V487.219H816.756C888.151 487.219 928.082 447.262 928.082 368.393Z" fill="#E2E8F0"/>
<path d="M1260.6 383.864V543.118H1208.17L1204.7 521.166C1183.79 540.139 1155.26 551.114 1117.81 551.114C1062.93 551.114 1030.94 521.166 1030.94 471.723C1030.94 420.816 1068.39 389.849 1129.8 389.849C1157.27 389.849 1177.23 392.854 1198.69 399.831V379.369C1198.69 342.914 1180.24 326.947 1136.28 326.947C1103.83 326.947 1076.36 332.931 1053.91 342.914V289.002C1083 278.282 1113.78 272.866 1144.78 273.009C1228.17 273.009 1260.6 307.478 1260.6 383.864ZM1198.64 478.23V441.775C1180.69 436.158 1162.03 433.131 1143.23 432.785C1111.27 432.785 1092.8 443.761 1092.8 468.744C1092.8 494.694 1110.78 503.683 1135.73 503.683C1161.22 503.683 1182.19 495.199 1198.64 478.23Z" fill="#E2E8F0"/>
<path d="M1321.02 192.128C1321.02 167.171 1338 152.693 1361.47 152.693C1385.43 152.693 1402.39 167.171 1402.39 192.128C1402.39 217.085 1385.43 231.066 1361.47 231.066C1338 231.066 1321.02 217.111 1321.02 192.128ZM1330.5 280.98H1392.41V543.092H1330.5V280.98Z" fill="#E2E8F0"/>
<path d="M1713.45 543.122H1642.06L1591.62 460.751C1581.17 442.275 1569.15 435.298 1550.67 435.298H1527.15V543.122H1465.19V168.664H1527.12V379.373H1550.07C1574.03 379.373 1582.03 367.875 1595.51 348.406L1641.95 281.009H1710.34L1652.43 366.882C1641.46 383.372 1629.96 396.856 1614.98 402.84C1625.96 406.342 1636.96 416.822 1647.44 433.782L1713.45 543.122Z" fill="#E2E8F0"/>
<path d="M1731.93 413.319C1731.93 327.943 1783.36 273.012 1866.72 273.012C1949.62 273.012 2000 325.957 2000 410.314C2000.05 495.638 1948.13 550.516 1864.74 550.516C1781.84 550.516 1731.93 498.251 1731.93 413.319ZM1937.62 411.829C1937.62 356.95 1910.18 325.957 1865.73 325.957C1821.8 325.957 1793.84 357.316 1793.84 411.829C1793.84 466.708 1821.8 497.702 1865.73 497.702C1910.18 497.702 1937.62 466.238 1937.62 411.829Z" fill="#E2E8F0"/>
</svg>
