<svg width="766" height="282" viewBox="0 0 766 282" fill="none" xmlns="http://www.w3.org/2000/svg">
<path d="M216.59 137.219L213.15 134.989L136.42 85.1395L130.24 81.1395C130.086 81.0237 129.903 80.9545 129.711 80.9403C129.52 80.926 129.328 80.9672 129.159 81.059C128.991 81.1507 128.852 81.2892 128.76 81.4578C128.667 81.6263 128.626 81.8178 128.64 82.0094V104.149C128.639 104.414 128.704 104.674 128.83 104.906C128.956 105.139 129.138 105.336 129.36 105.479L180.67 138.789L183.55 140.659L180.67 142.529L106.58 190.659L52.8397 155.759C52.2908 155.402 51.6498 155.211 50.9947 155.211C50.3396 155.211 49.6986 155.402 49.1497 155.759L35.2497 164.759C34.8782 165 34.5728 165.329 34.3613 165.718C34.1499 166.107 34.0391 166.542 34.0391 166.984C34.0391 167.427 34.1499 167.862 34.3613 168.251C34.5728 168.64 34.8782 168.969 35.2497 169.209L104.67 214.289C105.252 214.666 105.931 214.867 106.625 214.867C107.318 214.867 107.997 214.666 108.58 214.289L213.19 146.289L216.63 144.059C217.193 143.682 217.654 143.172 217.971 142.573C218.288 141.974 218.452 141.306 218.448 140.629C218.444 139.951 218.273 139.285 217.948 138.69C217.624 138.095 217.157 137.59 216.59 137.219Z" fill="#FF5D5D"/>
<path d="M1.77 119.999L19.46 108.499C19.9025 108.213 20.2662 107.821 20.5178 107.358C20.7693 106.895 20.9008 106.376 20.9 105.849V35.0295L76.74 71.2995L84.51 76.3495L87.39 78.2195L96.12 83.8895V139.66C96.1188 139.976 96.2014 140.287 96.3595 140.561C96.5176 140.835 96.7455 141.062 97.02 141.219L115.02 151.779C115.221 151.897 115.45 151.959 115.683 151.961C115.917 151.962 116.146 151.902 116.349 151.786C116.551 151.671 116.72 151.504 116.838 151.303C116.956 151.101 117.018 150.873 117.02 150.64V74.3095C117.019 73.7688 116.883 73.2369 116.625 72.7619C116.366 72.287 115.993 71.884 115.54 71.5895L6.33 0.659495C5.71108 0.258334 4.9954 0.0315554 4.25839 0.00306144C3.52138 -0.0254325 2.79034 0.145406 2.14229 0.497584C1.49424 0.849761 0.953201 1.37023 0.576172 2.00414C0.199143 2.63806 9.15046e-05 3.36194 0 4.0995V119.099C0.011751 119.3 0.0757935 119.494 0.18576 119.662C0.295727 119.83 0.44779 119.966 0.626801 120.057C0.805812 120.148 1.00553 120.191 1.2061 120.181C1.40667 120.171 1.60109 120.108 1.77 119.999Z" fill="#FF5D5D"/>
<path d="M94.67 221.661L77.67 210.661C77.3755 210.459 77.0269 210.351 76.67 210.351C76.3131 210.351 75.9645 210.459 75.67 210.661L20.8 246.291V148.291C20.7986 147.716 20.9417 147.15 21.216 146.645C21.4903 146.141 21.8872 145.713 22.37 145.401L83.13 105.841C83.3136 105.717 83.4639 105.551 83.5679 105.355C83.6719 105.16 83.7263 104.942 83.7263 104.721C83.7263 104.5 83.6719 104.282 83.5679 104.086C83.4639 103.891 83.3136 103.724 83.13 103.601L67.08 92.8109C66.7513 92.5916 66.3651 92.4746 65.97 92.4746C65.5749 92.4746 65.1887 92.5916 64.86 92.8109L2.09999 133.661C1.45684 134.082 0.928263 134.655 0.561722 135.331C0.19518 136.006 0.00216182 136.762 0 137.531V277.231C9.15046e-05 277.968 0.199143 278.692 0.576172 279.326C0.953201 279.96 1.49424 280.481 2.14229 280.833C2.79034 281.185 3.52138 281.356 4.25839 281.327C4.9954 281.299 5.71108 281.072 6.33 280.671L84.52 229.881L94.67 223.271C94.7961 223.178 94.8986 223.057 94.9693 222.917C95.0399 222.777 95.0767 222.623 95.0767 222.466C95.0767 222.309 95.0399 222.155 94.9693 222.015C94.8986 221.875 94.7961 221.754 94.67 221.661Z" fill="#FF5D5D"/>
<path d="M379.79 140.97C379.79 183.76 355.91 207.83 313.3 207.83H263.67V74.0996H313.34C355.91 74.0996 379.79 98.1696 379.79 140.97ZM355.14 140.97C355.14 110.78 339.86 95.4896 312.54 95.4896H287.89V186.44H312.54C339.86 186.44 355.14 171.15 355.14 140.97Z" fill="#0B101B"/>
<path d="M482.38 146.89V207.83H462.32L460.99 199.43C452.99 206.69 442.07 210.89 427.74 210.89C406.74 210.89 394.5 199.43 394.5 180.51C394.5 161.03 408.83 149.18 432.33 149.18C442.84 149.18 450.48 150.33 458.69 153V145.17C458.69 131.22 451.63 125.11 434.81 125.11C422.39 125.11 411.88 127.4 403.29 131.22V110.59C414.421 106.488 426.197 104.415 438.06 104.47C469.97 104.47 482.38 117.66 482.38 146.89ZM458.67 183V169.05C451.803 166.901 444.664 165.742 437.47 165.61C425.24 165.61 418.17 169.81 418.17 179.37C418.17 189.3 425.05 192.74 434.6 192.74C444.353 192.74 452.377 189.493 458.67 183Z" fill="#0B101B"/>
<path d="M505.5 73.5197C505.5 63.9697 512 58.4297 520.98 58.4297C530.15 58.4297 536.64 63.9697 536.64 73.5197C536.64 83.0697 530.15 88.4197 520.98 88.4197C512 88.4197 505.5 83.0797 505.5 73.5197ZM509.13 107.52H532.82V207.82H509.13V107.52Z" fill="#0B101B"/>
<path d="M655.67 207.831H628.35L609.05 176.311C605.05 169.241 600.45 166.571 593.38 166.571H584.38V207.831H560.67V64.541H584.37V145.171H593.15C602.32 145.171 605.38 140.771 610.54 133.321L628.31 107.531H654.48L632.32 140.391C628.12 146.701 623.72 151.861 617.99 154.151C622.19 155.491 626.4 159.501 630.41 165.991L655.67 207.831Z" fill="#0B101B"/>
<path d="M662.74 158.161C662.74 125.491 682.42 104.471 714.32 104.471C746.04 104.471 765.32 124.731 765.32 157.011C765.34 189.661 745.47 210.661 713.56 210.661C681.84 210.661 662.74 190.661 662.74 158.161ZM741.45 157.591C741.45 136.591 730.95 124.731 713.94 124.731C697.13 124.731 686.43 136.731 686.43 157.591C686.43 178.591 697.13 190.451 713.94 190.451C730.95 190.451 741.45 178.411 741.45 157.591Z" fill="#0B101B"/>
</svg>
