<svg width="2165" height="736" viewBox="0 0 2165 736" fill="none" xmlns="http://www.w3.org/2000/svg">
<path d="M566.01 358.594L557.02 352.767L356.503 222.495L340.353 212.041C339.952 211.739 339.473 211.558 338.972 211.521C338.471 211.484 337.971 211.591 337.53 211.831C337.089 212.071 336.726 212.433 336.485 212.873C336.244 213.314 336.135 213.814 336.171 214.315V272.173C336.169 272.864 336.341 273.543 336.669 274.151C336.998 274.758 337.474 275.273 338.053 275.649L472.141 362.697L479.667 367.584L472.141 372.471L278.522 498.248L138.084 407.045C136.65 406.11 134.975 405.613 133.263 405.613C131.551 405.613 129.876 406.11 128.441 407.045L92.1168 430.564C91.146 431.192 90.3479 432.053 89.7953 433.069C89.2427 434.085 88.9531 435.223 88.9531 436.379C88.9531 437.535 89.2427 438.673 89.7953 439.689C90.3479 440.704 91.146 441.565 92.1168 442.193L273.531 560C275.053 560.985 276.827 561.508 278.64 561.508C280.453 561.508 282.227 560.985 283.749 560L557.125 382.297L566.114 376.469C567.586 375.484 568.79 374.149 569.62 372.585C570.449 371.02 570.878 369.275 570.867 367.504C570.857 365.733 570.408 363.992 569.56 362.438C568.713 360.883 567.493 359.562 566.01 358.594Z" fill="#FF5D5D"/>
<path d="M4.62553 313.593L50.8545 283.54C52.0109 282.793 52.9613 281.767 53.6188 280.557C54.2762 279.347 54.6196 277.992 54.6176 276.615V91.542L200.544 186.326L220.849 199.523L228.375 204.41L251.189 219.227V364.97C251.186 365.797 251.402 366.61 251.815 367.326C252.228 368.042 252.824 368.636 253.541 369.047L300.58 396.643C301.106 396.95 301.704 397.113 302.314 397.116C302.923 397.119 303.523 396.962 304.052 396.66C304.582 396.359 305.022 395.923 305.33 395.397C305.638 394.871 305.803 394.273 305.807 393.664V194.192C305.804 192.779 305.449 191.389 304.774 190.148C304.098 188.906 303.124 187.853 301.939 187.084L16.5421 1.72345C14.9247 0.675101 13.0544 0.0824633 11.1284 0.00800042C9.20238 -0.0664624 7.29194 0.379988 5.59841 1.30033C3.90488 2.22067 2.49099 3.58081 1.5057 5.2374C0.520418 6.89399 0.000239128 8.7857 0 10.7132V311.241C0.0307088 311.765 0.19807 312.272 0.485445 312.711C0.77282 313.15 1.1702 313.506 1.63801 313.744C2.10582 313.982 2.62774 314.093 3.15188 314.067C3.67602 314.04 4.1841 313.877 4.62553 313.593Z" fill="#FF5D5D"/>
<path d="M247.4 579.263L202.974 550.517C202.204 549.99 201.293 549.708 200.361 549.708C199.428 549.708 198.517 549.99 197.747 550.517L54.3563 643.628V387.526C54.3528 386.024 54.7266 384.546 55.4435 383.226C56.1604 381.906 57.1974 380.788 58.4592 379.974L217.242 276.592C217.722 276.269 218.115 275.834 218.387 275.323C218.659 274.813 218.801 274.243 218.801 273.665C218.801 273.087 218.659 272.518 218.387 272.007C218.115 271.497 217.722 271.061 217.242 270.738L175.299 242.541C174.44 241.968 173.431 241.662 172.398 241.662C171.366 241.662 170.357 241.968 169.498 242.541L5.48787 349.294C3.80714 350.393 2.42582 351.893 1.46794 353.658C0.510062 355.423 0.00564944 357.399 0 359.407V724.483C0.000239128 726.41 0.520418 728.302 1.5057 729.959C2.49099 731.615 3.90488 732.975 5.59841 733.896C7.29194 734.816 9.20238 735.263 11.1284 735.188C13.0544 735.114 14.9247 734.521 16.5421 733.473L220.875 600.744L247.4 583.47C247.729 583.227 247.997 582.91 248.182 582.545C248.366 582.18 248.463 581.776 248.463 581.366C248.463 580.957 248.366 580.553 248.182 580.188C247.997 579.823 247.729 579.506 247.4 579.263Z" fill="#FF5D5D"/>
<path d="M920.66 521L786.812 348.776L916.448 190.592H1007.24L861.224 362.348V332.396L1011.92 521H920.66ZM720.824 521V190.592H794.3V521H720.824ZM1044.25 521V293.552H1115.85V521H1044.25ZM1080.28 262.196C1069.05 262.196 1059.69 258.452 1052.2 250.964C1045.03 243.164 1041.44 233.804 1041.44 222.884C1041.44 211.652 1045.03 202.292 1052.2 194.804C1059.69 187.316 1069.05 183.572 1080.28 183.572C1091.52 183.572 1100.72 187.316 1107.9 194.804C1115.07 202.292 1118.66 211.652 1118.66 222.884C1118.66 233.804 1115.07 243.164 1107.9 250.964C1100.72 258.452 1091.52 262.196 1080.28 262.196ZM1151.77 478.88L1265.96 335.204H1353.01L1238.82 478.88H1151.77ZM1151.77 521V478.88L1202.78 461.096H1350.2V521H1151.77ZM1160.19 353.456V293.552H1353.01V335.204L1302.46 353.456H1160.19ZM1492.68 526.148C1471.78 526.148 1453.21 521.936 1436.99 513.512C1421.08 504.776 1408.6 492.92 1399.55 477.944C1390.5 462.656 1385.98 445.184 1385.98 425.528V293.552H1457.58V424.592C1457.58 432.392 1458.83 439.1 1461.32 444.716C1464.13 450.332 1468.19 454.7 1473.49 457.82C1478.8 460.94 1485.19 462.5 1492.68 462.5C1503.29 462.5 1511.71 459.224 1517.95 452.672C1524.19 445.808 1527.31 436.448 1527.31 424.592V293.552H1598.92V425.06C1598.92 445.028 1594.39 462.656 1585.34 477.944C1576.3 492.92 1563.82 504.776 1547.9 513.512C1531.99 521.936 1513.58 526.148 1492.68 526.148ZM1794.1 521V391.364C1794.1 379.508 1790.36 369.992 1782.87 362.816C1775.69 355.328 1766.49 351.584 1755.26 351.584C1747.46 351.584 1740.59 353.3 1734.67 356.732C1728.74 359.852 1724.06 364.532 1720.63 370.772C1717.19 376.7 1715.48 383.564 1715.48 391.364L1687.87 377.792C1687.87 360.008 1691.77 344.408 1699.57 330.992C1707.37 317.576 1718.13 307.28 1731.86 300.104C1745.9 292.616 1761.65 288.872 1779.13 288.872C1795.97 288.872 1810.79 292.928 1823.59 301.04C1836.69 308.84 1846.99 319.292 1854.47 332.396C1861.96 345.5 1865.71 359.852 1865.71 375.452V521H1794.1ZM1643.87 521V293.552H1715.48V521H1643.87ZM2006.7 525.68C1985.79 525.68 1967.07 520.532 1950.54 510.236C1934.31 499.94 1921.37 485.9 1911.69 468.116C1902.33 450.332 1897.65 430.052 1897.65 407.276C1897.65 384.5 1902.33 364.22 1911.69 346.436C1921.37 328.652 1934.31 314.612 1950.54 304.316C1967.07 294.02 1985.79 288.872 2006.7 288.872C2021.99 288.872 2035.71 291.836 2047.88 297.764C2060.36 303.692 2070.5 311.96 2078.3 322.568C2086.1 332.864 2090.47 344.72 2091.41 358.136V456.416C2090.47 469.832 2086.1 481.844 2078.3 492.452C2070.81 502.748 2060.83 510.86 2048.35 516.788C2035.87 522.716 2021.99 525.68 2006.7 525.68ZM2021.21 461.096C2036.49 461.096 2048.82 456.104 2058.18 446.12C2067.54 435.824 2072.22 422.876 2072.22 407.276C2072.22 396.668 2070.03 387.308 2065.67 379.196C2061.61 371.084 2055.68 364.844 2047.88 360.476C2040.39 355.796 2031.66 353.456 2021.67 353.456C2011.69 353.456 2002.8 355.796 1995 360.476C1987.51 364.844 1981.43 371.084 1976.75 379.196C1972.38 387.308 1970.19 396.668 1970.19 407.276C1970.19 417.572 1972.38 426.776 1976.75 434.888C1981.11 443 1987.2 449.396 1995 454.076C2002.8 458.756 2011.53 461.096 2021.21 461.096ZM2069.41 521V459.692L2080.17 404.468L2069.41 349.244V293.552H2139.61V521H2069.41Z" fill="#E2E8F0"/>
</svg>
