<svg width="667" height="667" viewBox="0 0 667 667" fill="none" xmlns="http://www.w3.org/2000/svg">
<path d="M498.186 28.2437C545.14 4.99301 568.616 -6.63199 584.483 3.92301C600.346 14.4783 598.09 40.2237 593.58 91.7143L592.413 105.035C591.13 119.668 590.49 126.984 592.78 133.615C595.066 140.247 600.026 145.443 609.946 155.836L618.98 165.297C653.886 201.87 671.34 220.156 665.586 238.892C659.833 257.629 634.683 264.407 584.383 277.963L571.37 281.47C557.076 285.323 549.93 287.25 544.23 291.723C538.533 296.197 534.926 302.713 527.713 315.743L521.146 327.603C495.766 373.46 483.08 396.387 463.66 397.41C444.24 398.433 430.95 376.877 404.373 333.767L397.5 322.613C389.946 310.36 386.17 304.237 380.36 300.37C374.55 296.503 367.36 295.333 352.983 292.993L339.893 290.863C289.303 282.63 264.005 278.513 257.756 260.409C251.508 242.306 268.446 222.205 302.32 182.004L311.083 171.604C320.71 160.18 325.523 154.468 327.63 147.604C329.736 140.741 328.9 133.503 327.226 119.026L325.703 105.847C319.816 54.9053 316.873 29.4343 332.43 17.2213C347.986 5.00834 371.743 14.1417 419.253 32.408L431.546 37.134C445.046 42.3247 451.8 44.92 458.913 44.5447C466.026 44.1693 472.696 40.866 486.04 34.2587L498.186 28.2437Z" fill="#FF5D5D"/>
<path d="M234.817 310.68C133.016 375.66 42.3704 493.226 3.02678 601.073C-9.73822 636.063 19.6898 666.69 57.2228 666.69H91.6668C91.6691 654.996 94.4081 640.466 98.4574 625.216C102.625 609.52 108.629 591.436 116.111 572.056C131.074 533.31 152.353 488.353 177.874 445.51C203.303 402.82 233.54 361.223 266.707 329.976C267.527 329.203 268.353 328.436 269.18 327.67C268.4 327.433 267.63 327.193 266.873 326.95C257.397 323.9 245.555 319.046 234.817 310.68Z" fill="#FF5D5D"/>
<path d="M334.006 340.578C323.383 347.078 312.349 355.668 300.993 366.368C272.429 393.278 244.936 430.628 220.829 471.098C196.814 511.411 176.75 553.821 162.754 590.065C155.758 608.185 150.378 624.505 146.782 638.045C143.074 652.015 141.669 661.548 141.666 666.688H236.101C236.104 629.221 249.08 559.831 272.563 490.295C289.796 439.271 313.656 385.185 344.406 342.271L334.006 340.578Z" fill="#FF5D5D"/>
<path d="M376.606 383.781C354.083 418.571 334.906 461.958 319.936 506.295C297.34 573.205 286.106 636.808 286.1 666.688H329.06C366.593 666.688 396.81 636.475 399.31 599.348C403.603 535.545 413.453 478.038 424.703 437.141C413.566 430.601 404.96 422.008 398.63 414.575C391.33 406.005 383.986 395.301 376.606 383.781Z" fill="#FF5D5D"/>
</svg>
